<svg version="1.1" xmlns="http://www.w3.org/2000/svg" xmlns:xlink="http://www.w3.org/1999/xlink" width="175.00702" height="120.39396" viewBox="0,0,175.00702,120.39396"><defs><clipPath id="clip-1"><path d="M170.0512,235.45163v-100.26207h7.04152v100.26207z" fill="none" stroke-width="1"/></clipPath></defs><g transform="translate(-152.49649,-119.80302)"><g data-paper-data="{&quot;isPaintingLayer&quot;:true}" fill-rule="nonzero" stroke="none" stroke-linecap="butt" stroke-linejoin="miter" stroke-miterlimit="10" stroke-dasharray="" stroke-dashoffset="0" style="mix-blend-mode: normal"><g fill="#75a3bf" stroke-width="0"><path d="M304.43622,209.56601c-0.69434,0 -1.38867,-0.17523 -2.01988,-0.53972c-1.41672,-0.79907 -2.30041,-2.35515 -2.30041,-4.06544v-51.94646c0,-2.5374 1.94273,-4.59815 4.32029,-4.59815h5.35828c3.94858,0 7.53948,2.51637 9.15959,6.40657c0.58212,1.40888 0.88369,2.90188 0.88369,4.44394v25.15664c0,3.77805 -0.68732,7.45797 -2.03391,10.93462c-2.23028,5.74068 -6.21393,10.57013 -11.22154,13.59819c-0.66628,0.40654 -1.40269,0.60281 -2.13911,0.60281zM304.43622,151.227c-0.8346,0 -1.51491,0.80608 -1.51491,1.7944v51.95347c0,0.83411 0.44886,1.38085 0.86967,1.61917c0.25248,0.14019 0.75745,0.32243 1.33256,-0.02103c4.48161,-2.70562 8.05146,-7.04443 10.05731,-12.21734c1.22735,-3.15422 1.84454,-6.49067 1.84454,-9.91826v-25.15664c0,-1.17057 -0.22443,-2.30608 -0.66628,-3.37151c-1.17826,-2.8388 -3.75922,-4.67525 -6.56461,-4.67525h-5.35828z"/><path d="M310.95173,141.08444c9.12452,0 16.55178,7.42293 16.55178,16.54212v29.6076c0,17.43231 -13.85861,31.67536 -31.13979,32.32723v14.95099c0,0.68692 -0.49796,1.2687 -1.17826,1.38085c-17.91239,2.86683 -36.11233,4.30375 -53.99667,4.30375c-17.88434,0 -35.75465,-1.40888 -53.51275,-4.22665l-0.49094,-0.07711c-0.68031,-0.11215 -1.18528,-0.70094 -1.18528,-1.38786v-107.91631c0,-0.14019 0.02806,-0.26635 0.06313,-0.39252c-0.03507,-0.20327 -0.06313,-0.42758 -0.06313,-0.70795c0,-0.68692 0.49796,-1.26869 1.17827,-1.38084c35.66347,-5.71264 71.83192,-5.74068 107.50942,-0.07711l0.49094,0.07711c0.6803,0.10514 1.17826,0.69393 1.17826,1.38084c0,0.31542 -0.00701,0.5958 -0.02805,0.84814c0.01403,0.08411 0.02805,0.16822 0.02805,0.25233v14.49539zM293.55132,128.22925c-17.70916,2.75339 -35.54029,4.10396 -53.37004,4.05171c-0.11278,-0.00377 -0.22416,-0.00575 -0.334,-0.00575c-0.12574,0 -0.25118,0.001 -0.37632,0.00293c-16.92885,-0.08498 -33.85497,-1.43461 -50.67276,-4.04889v105.07751c34.76575,5.44628 69.99439,5.44628 104.75312,0zM324.69111,157.62656c0,-7.57713 -6.16484,-13.73837 -13.7464,-13.73837h-14.41969v72.86243c15.65406,-0.72897 28.16608,-13.6893 28.16608,-29.51646zM193.19563,126.04232c31.86919,4.5631 64.10308,4.57011 95.96526,0c-31.86919,-4.57011 -64.09607,-4.57011 -95.96526,0z"/></g><g stroke-width="0"><g><g><path d="M203.38607,142.09824c0.17227,0.01064 0.3416,0.02464 0.5074,0.04227c-0.14437,-0.00099 -0.28871,-0.00181 -0.43304,-0.00244c-0.02491,-0.01307 -0.0497,-0.02635 -0.07436,-0.03983z" fill="#fac900"/><path d="" fill="#f6543b"/><path d="" fill="#4ebfe9"/><path d="M227.05732,133.0076c-0.04724,-0.02035 -0.0957,-0.03966 -0.14531,-0.05793c0.53678,0.07873 1.04529,0.24441 1.51074,0.48226c-0.08008,0.01718 -0.15944,0.03628 -0.23805,0.05725c-0.35091,-0.20425 -0.72894,-0.36702 -1.12738,-0.48157z" fill="#61e061"/><path d="" fill="#c75eeb"/></g></g><g><g><path d="" fill="#fac900"/><path d="M246.70137,132.89749c0.56645,0 1.11045,0.09601 1.61662,0.27264c-0.83736,0.05361 -1.7592,-0.02294 -2.70951,-0.15044c0.35143,-0.07997 0.71723,-0.1222 1.0929,-0.1222z" fill="#f6543b"/><path d="" fill="#4ebfe9"/><path d="" fill="#61e061"/><path d="" fill="#c75eeb"/></g></g><g><g><path d="M205.73571,152.74103c-0.67948,0 -1.32667,-0.13815 -1.91499,-0.38789c0.99289,0.10879 1.982,0.19948 2.96819,0.27455c-0.33925,0.07422 -0.69165,0.11334 -1.05319,0.11334z" fill="#fac900"/><path d="M195.56619,152.74103c-1.50537,0 -2.85227,-0.67811 -3.75156,-1.74537c1.23477,0.9562 2.77603,1.61625 3.68311,1.70724c0.12916,0.01295 0.25864,0.0221 0.38839,0.02786c-0.10577,0.00681 -0.21244,0.01027 -0.31993,0.01027z" fill="#f6543b"/><path d="" fill="#4ebfe9"/><path d="" fill="#61e061"/><path d="" fill="#c75eeb"/></g></g><g><g><path d="M256.87089,152.74103c-0.11403,0 -0.22715,-0.00389 -0.33923,-0.01155c0.18353,0.00227 0.36607,0.00466 0.54738,0.00721c-0.06902,0.00288 -0.13841,0.00434 -0.20814,0.00434z" fill="#fac900"/><path d="M246.70137,152.74103c-0.72521,0 -1.41364,-0.15738 -2.03296,-0.43982c0.78369,0.13818 1.92426,0.22525 3.2701,0.28248c-0.3952,0.10269 -0.80978,0.15734 -1.23714,0.15734z" fill="#f6543b"/><path d="M267.04743,152.74103c-0.33291,0 -0.65806,-0.03316 -0.97234,-0.09636c1.11742,-0.22147 2.23582,-0.47473 3.33192,-0.50744c-0.7,0.38486 -1.5042,0.6038 -2.35957,0.6038z" fill="#4ebfe9"/><path d="" fill="#61e061"/><path d="" fill="#c75eeb"/></g></g><g><g><path d="M200.8333,157.8789c0,-2.70595 2.19488,-4.89956 4.90241,-4.89956c2.70753,0 4.90241,2.19361 4.90241,4.89956c0,2.70595 -2.19488,4.89955 -4.90241,4.89955c-2.70753,0 -4.90241,-2.1936 -4.90241,-4.89955z" fill="#fac900"/><path d="M190.66377,157.8789c0,-2.70595 2.19488,-4.89956 4.90241,-4.89956c2.70753,0 4.90241,2.19361 4.90241,4.89956c0,2.70595 -2.19488,4.89955 -4.90241,4.89955c-2.70753,0 -4.90241,-2.1936 -4.90241,-4.89955z" fill="#f6543b"/><path d="M211.00282,157.8789c0,-2.70595 2.19488,-4.89956 4.90242,-4.89956c2.70753,0 4.90241,2.19361 4.90241,4.89956c0,2.70595 -2.19488,4.89955 -4.90241,4.89955c-2.70753,0 -4.90242,-2.1936 -4.90242,-4.89955z" fill="#4ebfe9"/><path d="M221.29157,157.8789c0,-2.70595 2.19488,-4.89956 4.90242,-4.89956c2.70753,0 4.90241,2.19361 4.90241,4.89956c0,2.70595 -2.19488,4.89955 -4.90241,4.89955c-2.70753,0 -4.90242,-2.1936 -4.90242,-4.89955z" fill="#61e061"/><path d="M231.5102,157.8789c0,-2.42976 1.7697,-4.44643 4.09118,-4.83279c0.77068,0.07599 1.54506,0.14335 2.33758,0.17536c1.96018,0.64124 3.37607,2.48408 3.37607,4.65743c0,2.70595 -2.19488,4.89955 -4.90241,4.89955c-2.70753,0 -4.90241,-2.1936 -4.90241,-4.89955z" fill="#c75eeb"/></g></g><g><g><path d="M251.96848,157.8789c0,-2.70595 2.19488,-4.89956 4.90241,-4.89956c2.70753,0 4.90241,2.19361 4.90241,4.89956c0,2.70595 -2.19488,4.89955 -4.90241,4.89955c-2.70753,0 -4.90241,-2.1936 -4.90241,-4.89955z" fill="#fac900"/><path d="M241.79895,157.8789c0,-2.70595 2.19488,-4.89956 4.90242,-4.89956c2.70753,0 4.90241,2.19361 4.90241,4.89956c0,2.70595 -2.19488,4.89955 -4.90241,4.89955c-2.70753,0 -4.90242,-2.1936 -4.90242,-4.89955z" fill="#f6543b"/><path d="M262.14502,157.8789c0,-2.70595 2.19488,-4.89956 4.90242,-4.89956c2.70753,0 4.90241,2.19361 4.90241,4.89956c0,2.70595 -2.19488,4.89955 -4.90241,4.89955c-2.70753,0 -4.90242,-2.1936 -4.90242,-4.89955z" fill="#4ebfe9"/><path d="M272.42676,157.8789c0,-2.2961 1.58035,-4.2233 3.71328,-4.75443c1.17781,0.18975 2.38991,0.36473 3.60502,0.49012c1.48479,0.84202 2.48653,2.43625 2.48653,4.26431c0,2.70595 -2.19488,4.89955 -4.90241,4.89955c-2.70753,0 -4.90241,-2.1936 -4.90241,-4.89955z" fill="#61e061"/><path d="M282.65239,157.8789c0,-1.73864 0.90613,-3.26577 2.27217,-4.13541c1.24467,-0.09655 2.44082,-0.30821 3.5497,-0.67811c2.26803,0.43011 3.98295,2.42166 3.98295,4.81352c0,2.70595 -2.19488,4.89955 -4.90242,4.89955c-2.70753,0 -4.90241,-2.1936 -4.90241,-4.89955z" fill="#c75eeb"/></g></g><g><g><path d="M200.8333,167.92333c0,-2.70595 2.19488,-4.89955 4.90241,-4.89955c2.70753,0 4.90241,2.1936 4.90241,4.89955c0,2.70595 -2.19488,4.89955 -4.90241,4.89955c-2.70753,0 -4.90241,-2.1936 -4.90241,-4.89955z" fill="#fac900"/><path d="M190.66377,167.92333c0,-2.70595 2.19488,-4.89955 4.90241,-4.89955c2.70753,0 4.90241,2.1936 4.90241,4.89955c0,2.70595 -2.19488,4.89955 -4.90241,4.89955c-2.70753,0 -4.90241,-2.1936 -4.90241,-4.89955z" fill="#f6543b"/><path d="M211.00282,167.92333c0,-2.70595 2.19488,-4.89955 4.90242,-4.89955c2.70753,0 4.90241,2.1936 4.90241,4.89955c0,2.70595 -2.19488,4.89955 -4.90241,4.89955c-2.70753,0 -4.90242,-2.1936 -4.90242,-4.89955z" fill="#4ebfe9"/><path d="M221.29157,167.92333c0,-2.70595 2.19488,-4.89955 4.90242,-4.89955c2.70753,0 4.90241,2.1936 4.90241,4.89955c0,2.70595 -2.19488,4.89955 -4.90241,4.89955c-2.70753,0 -4.90242,-2.1936 -4.90242,-4.89955z" fill="#61e061"/><path d="M231.5102,167.92333c0,-2.70595 2.19488,-4.89955 4.90241,-4.89955c2.70753,0 4.90241,2.1936 4.90241,4.89955c0,2.70595 -2.19488,4.89955 -4.90241,4.89955c-2.70753,0 -4.90241,-2.1936 -4.90241,-4.89955z" fill="#c75eeb"/></g></g><g><g><path d="M251.96848,167.92333c0,-2.70595 2.19488,-4.89955 4.90241,-4.89955c2.70753,0 4.90241,2.1936 4.90241,4.89955c0,2.70595 -2.19488,4.89955 -4.90241,4.89955c-2.70753,0 -4.90241,-2.1936 -4.90241,-4.89955z" fill="#fac900"/><path d="M241.79895,167.92333c0,-2.70595 2.19488,-4.89955 4.90242,-4.89955c2.70753,0 4.90241,2.1936 4.90241,4.89955c0,2.70595 -2.19488,4.89955 -4.90241,4.89955c-2.70753,0 -4.90242,-2.1936 -4.90242,-4.89955z" fill="#f6543b"/><path d="M262.14502,167.92333c0,-2.70595 2.19488,-4.89955 4.90242,-4.89955c2.70753,0 4.90241,2.1936 4.90241,4.89955c0,2.70595 -2.19488,4.89955 -4.90241,4.89955c-2.70753,0 -4.90242,-2.1936 -4.90242,-4.89955z" fill="#4ebfe9"/><path d="M272.42676,167.92333c0,-2.70595 2.19488,-4.89955 4.90241,-4.89955c2.70753,0 4.90241,2.1936 4.90241,4.89955c0,2.70595 -2.19488,4.89955 -4.90241,4.89955c-2.70753,0 -4.90241,-2.1936 -4.90241,-4.89955z" fill="#61e061"/><path d="M282.65239,167.92333c0,-2.70595 2.19488,-4.89955 4.90241,-4.89955c2.70753,0 4.90242,2.1936 4.90242,4.89955c0,2.70595 -2.19488,4.89955 -4.90242,4.89955c-2.70753,0 -4.90241,-2.1936 -4.90241,-4.89955z" fill="#c75eeb"/></g></g><g><g><path d="M200.8333,177.96776c0,-2.70595 2.19488,-4.89955 4.90241,-4.89955c2.70753,0 4.90241,2.1936 4.90241,4.89955c0,2.70595 -2.19488,4.89955 -4.90241,4.89955c-2.70753,0 -4.90241,-2.1936 -4.90241,-4.89955z" fill="#fac900"/><path d="M190.66377,177.96776c0,-2.70595 2.19488,-4.89955 4.90241,-4.89955c2.70753,0 4.90241,2.1936 4.90241,4.89955c0,2.70595 -2.19488,4.89955 -4.90241,4.89955c-2.70753,0 -4.90241,-2.1936 -4.90241,-4.89955z" fill="#f6543b"/><path d="M211.00282,177.96776c0,-2.70595 2.19488,-4.89955 4.90242,-4.89955c2.70753,0 4.90241,2.1936 4.90241,4.89955c0,2.70595 -2.19488,4.89955 -4.90241,4.89955c-2.70753,0 -4.90242,-2.1936 -4.90242,-4.89955z" fill="#4ebfe9"/><path d="M221.29157,177.96776c0,-2.70595 2.19488,-4.89955 4.90242,-4.89955c2.70753,0 4.90241,2.1936 4.90241,4.89955c0,2.70595 -2.19488,4.89955 -4.90241,4.89955c-2.70753,0 -4.90242,-2.1936 -4.90242,-4.89955z" fill="#61e061"/><path d="M231.5102,177.96776c0,-2.70595 2.19488,-4.89955 4.90241,-4.89955c2.70753,0 4.90241,2.1936 4.90241,4.89955c0,2.70595 -2.19488,4.89955 -4.90241,4.89955c-2.70753,0 -4.90241,-2.1936 -4.90241,-4.89955z" fill="#c75eeb"/></g></g><g><g><path d="M251.96848,177.96776c0,-2.70595 2.19488,-4.89955 4.90241,-4.89955c2.70753,0 4.90241,2.1936 4.90241,4.89955c0,2.70595 -2.19488,4.89955 -4.90241,4.89955c-2.70753,0 -4.90241,-2.1936 -4.90241,-4.89955z" fill="#fac900"/><path d="M241.79895,177.96776c0,-2.70595 2.19488,-4.89955 4.90242,-4.89955c2.70753,0 4.90241,2.1936 4.90241,4.89955c0,2.70595 -2.19488,4.89955 -4.90241,4.89955c-2.70753,0 -4.90242,-2.1936 -4.90242,-4.89955z" fill="#f6543b"/><path d="M262.14502,177.96776c0,-2.70595 2.19488,-4.89955 4.90242,-4.89955c2.70753,0 4.90241,2.1936 4.90241,4.89955c0,2.70595 -2.19488,4.89955 -4.90241,4.89955c-2.70753,0 -4.90242,-2.1936 -4.90242,-4.89955z" fill="#4ebfe9"/><path d="M272.42676,177.96776c0,-2.70595 2.19488,-4.89955 4.90241,-4.89955c2.70753,0 4.90241,2.1936 4.90241,4.89955c0,2.70595 -2.19488,4.89955 -4.90241,4.89955c-2.70753,0 -4.90241,-2.1936 -4.90241,-4.89955z" fill="#61e061"/><path d="M282.65239,177.96776c0,-2.70595 2.19488,-4.89955 4.90241,-4.89955c2.70753,0 4.90242,2.1936 4.90242,4.89955c0,2.70595 -2.19488,4.89955 -4.90242,4.89955c-2.70753,0 -4.90241,-2.1936 -4.90241,-4.89955z" fill="#c75eeb"/></g></g><g><g><path d="M200.8333,188.01219c0,-2.70595 2.19488,-4.89955 4.90241,-4.89955c2.70753,0 4.90241,2.1936 4.90241,4.89955c0,2.70595 -2.19488,4.89955 -4.90241,4.89955c-2.70753,0 -4.90241,-2.1936 -4.90241,-4.89955z" fill="#fac900"/><path d="M190.66377,188.01219c0,-2.70595 2.19488,-4.89955 4.90241,-4.89955c2.70753,0 4.90241,2.1936 4.90241,4.89955c0,2.70595 -2.19488,4.89955 -4.90241,4.89955c-2.70753,0 -4.90241,-2.1936 -4.90241,-4.89955z" fill="#f6543b"/><path d="M211.00282,188.01219c0,-2.70595 2.19488,-4.89955 4.90242,-4.89955c2.70753,0 4.90241,2.1936 4.90241,4.89955c0,2.70595 -2.19488,4.89955 -4.90241,4.89955c-2.70753,0 -4.90242,-2.1936 -4.90242,-4.89955z" fill="#4ebfe9"/><path d="M221.29157,188.01219c0,-2.70595 2.19488,-4.89955 4.90242,-4.89955c2.70753,0 4.90241,2.1936 4.90241,4.89955c0,2.70595 -2.19488,4.89955 -4.90241,4.89955c-2.70753,0 -4.90242,-2.1936 -4.90242,-4.89955z" fill="#61e061"/><path d="M231.5102,188.01219c0,-2.70595 2.19488,-4.89955 4.90241,-4.89955c2.70753,0 4.90241,2.1936 4.90241,4.89955c0,2.70595 -2.19488,4.89955 -4.90241,4.89955c-2.70753,0 -4.90241,-2.1936 -4.90241,-4.89955z" fill="#c75eeb"/></g></g><g><g><path d="M251.96848,188.01219c0,-2.70595 2.19488,-4.89955 4.90241,-4.89955c2.70753,0 4.90241,2.1936 4.90241,4.89955c0,2.70595 -2.19488,4.89955 -4.90241,4.89955c-2.70753,0 -4.90241,-2.1936 -4.90241,-4.89955z" fill="#fac900"/><path d="M241.79895,188.01219c0,-2.70595 2.19488,-4.89955 4.90242,-4.89955c2.70753,0 4.90241,2.1936 4.90241,4.89955c0,2.70595 -2.19488,4.89955 -4.90241,4.89955c-2.70753,0 -4.90242,-2.1936 -4.90242,-4.89955z" fill="#f6543b"/><path d="M262.14502,188.01219c0,-2.70595 2.19488,-4.89955 4.90242,-4.89955c2.70753,0 4.90241,2.1936 4.90241,4.89955c0,2.70595 -2.19488,4.89955 -4.90241,4.89955c-2.70753,0 -4.90242,-2.1936 -4.90242,-4.89955z" fill="#4ebfe9"/><path d="M272.42676,188.01219c0,-2.70595 2.19488,-4.89955 4.90241,-4.89955c2.70753,0 4.90241,2.1936 4.90241,4.89955c0,2.70595 -2.19488,4.89955 -4.90241,4.89955c-2.70753,0 -4.90241,-2.1936 -4.90241,-4.89955z" fill="#61e061"/><path d="M282.65239,188.01219c0,-2.70595 2.19488,-4.89955 4.90241,-4.89955c2.70753,0 4.90242,2.1936 4.90242,4.89955c0,2.70595 -2.19488,4.89955 -4.90242,4.89955c-2.70753,0 -4.90241,-2.1936 -4.90241,-4.89955z" fill="#c75eeb"/></g></g><g><g><path d="M200.8333,198.05662c0,-2.70595 2.19488,-4.89955 4.90241,-4.89955c2.70753,0 4.90241,2.1936 4.90241,4.89955c0,2.70595 -2.19488,4.89955 -4.90241,4.89955c-2.70753,0 -4.90241,-2.1936 -4.90241,-4.89955z" fill="#fac900"/><path d="M190.66377,198.05662c0,-2.70595 2.19488,-4.89955 4.90241,-4.89955c2.70753,0 4.90241,2.1936 4.90241,4.89955c0,2.70595 -2.19488,4.89955 -4.90241,4.89955c-2.70753,0 -4.90241,-2.1936 -4.90241,-4.89955z" fill="#f6543b"/><path d="M211.00282,198.05662c0,-2.70595 2.19488,-4.89955 4.90242,-4.89955c2.70753,0 4.90241,2.1936 4.90241,4.89955c0,2.70595 -2.19488,4.89955 -4.90241,4.89955c-2.70753,0 -4.90242,-2.1936 -4.90242,-4.89955z" fill="#4ebfe9"/><path d="M221.29157,198.05662c0,-2.70595 2.19488,-4.89955 4.90242,-4.89955c2.70753,0 4.90241,2.1936 4.90241,4.89955c0,2.70595 -2.19488,4.89955 -4.90241,4.89955c-2.70753,0 -4.90242,-2.1936 -4.90242,-4.89955z" fill="#61e061"/><path d="M231.5102,198.05662c0,-2.70595 2.19488,-4.89955 4.90241,-4.89955c2.70753,0 4.90241,2.1936 4.90241,4.89955c0,2.70595 -2.19488,4.89955 -4.90241,4.89955c-2.70753,0 -4.90241,-2.1936 -4.90241,-4.89955z" fill="#c75eeb"/></g></g><g><g><path d="M251.96848,198.05662c0,-2.70595 2.19488,-4.89955 4.90241,-4.89955c2.70753,0 4.90241,2.1936 4.90241,4.89955c0,2.70595 -2.19488,4.89955 -4.90241,4.89955c-2.70753,0 -4.90241,-2.1936 -4.90241,-4.89955z" fill="#fac900"/><path d="M241.79895,198.05662c0,-2.70595 2.19488,-4.89955 4.90242,-4.89955c2.70753,0 4.90241,2.1936 4.90241,4.89955c0,2.70595 -2.19488,4.89955 -4.90241,4.89955c-2.70753,0 -4.90242,-2.1936 -4.90242,-4.89955z" fill="#f6543b"/><path d="M262.14502,198.05662c0,-2.70595 2.19488,-4.89955 4.90242,-4.89955c2.70753,0 4.90241,2.1936 4.90241,4.89955c0,2.70595 -2.19488,4.89955 -4.90241,4.89955c-2.70753,0 -4.90242,-2.1936 -4.90242,-4.89955z" fill="#4ebfe9"/><path d="M272.42676,198.05662c0,-2.70595 2.19488,-4.89955 4.90241,-4.89955c2.70753,0 4.90241,2.1936 4.90241,4.89955c0,2.70595 -2.19488,4.89955 -4.90241,4.89955c-2.70753,0 -4.90241,-2.1936 -4.90241,-4.89955z" fill="#61e061"/><path d="M282.65239,198.05662c0,-2.70595 2.19488,-4.89955 4.90241,-4.89955c2.70753,0 4.90242,2.1936 4.90242,4.89955c0,2.70595 -2.19488,4.89955 -4.90242,4.89955c-2.70753,0 -4.90241,-2.1936 -4.90241,-4.89955z" fill="#c75eeb"/></g></g><g><g><path d="M200.8333,208.10105c0,-2.70595 2.19488,-4.89955 4.90241,-4.89955c2.70753,0 4.90241,2.1936 4.90241,4.89955c0,2.70595 -2.19488,4.89956 -4.90241,4.89956c-2.70753,0 -4.90241,-2.19361 -4.90241,-4.89956z" fill="#fac900"/><path d="M190.66377,208.10105c0,-2.70595 2.19488,-4.89955 4.90241,-4.89955c2.70753,0 4.90241,2.1936 4.90241,4.89955c0,2.70595 -2.19488,4.89956 -4.90241,4.89956c-2.70753,0 -4.90241,-2.19361 -4.90241,-4.89956z" fill="#f6543b"/><path d="M211.00282,208.10105c0,-2.70595 2.19488,-4.89955 4.90242,-4.89955c2.70753,0 4.90241,2.1936 4.90241,4.89955c0,2.70595 -2.19488,4.89956 -4.90241,4.89956c-2.70753,0 -4.90242,-2.19361 -4.90242,-4.89956z" fill="#4ebfe9"/><path d="M221.29157,208.10105c0,-2.70595 2.19488,-4.89955 4.90242,-4.89955c2.70753,0 4.90241,2.1936 4.90241,4.89955c0,2.70595 -2.19488,4.89956 -4.90241,4.89956c-2.70753,0 -4.90242,-2.19361 -4.90242,-4.89956z" fill="#61e061"/><path d="M231.5102,208.10105c0,-2.70595 2.19488,-4.89955 4.90241,-4.89955c2.70753,0 4.90241,2.1936 4.90241,4.89955c0,2.70595 -2.19488,4.89956 -4.90241,4.89956c-2.70753,0 -4.90241,-2.19361 -4.90241,-4.89956z" fill="#c75eeb"/></g></g><g><g><path d="M251.96848,208.10105c0,-2.70595 2.19488,-4.89955 4.90241,-4.89955c2.70753,0 4.90241,2.1936 4.90241,4.89955c0,2.70595 -2.19488,4.89956 -4.90241,4.89956c-2.70753,0 -4.90241,-2.19361 -4.90241,-4.89956z" fill="#fac900"/><path d="M241.79895,208.10105c0,-2.70595 2.19488,-4.89955 4.90242,-4.89955c2.70753,0 4.90241,2.1936 4.90241,4.89955c0,2.70595 -2.19488,4.89956 -4.90241,4.89956c-2.70753,0 -4.90242,-2.19361 -4.90242,-4.89956z" fill="#f6543b"/><path d="M262.14502,208.10105c0,-2.70595 2.19488,-4.89955 4.90242,-4.89955c2.70753,0 4.90241,2.1936 4.90241,4.89955c0,2.70595 -2.19488,4.89956 -4.90241,4.89956c-2.70753,0 -4.90242,-2.19361 -4.90242,-4.89956z" fill="#4ebfe9"/><path d="M272.42676,208.10105c0,-2.70595 2.19488,-4.89955 4.90241,-4.89955c2.70753,0 4.90241,2.1936 4.90241,4.89955c0,2.70595 -2.19488,4.89956 -4.90241,4.89956c-2.70753,0 -4.90241,-2.19361 -4.90241,-4.89956z" fill="#61e061"/><path d="M282.65239,208.10105c0,-2.70595 2.19488,-4.89955 4.90241,-4.89955c2.70753,0 4.90242,2.1936 4.90242,4.89955c0,2.70595 -2.19488,4.89956 -4.90242,4.89956c-2.70753,0 -4.90241,-2.19361 -4.90241,-4.89956z" fill="#c75eeb"/></g></g><g><g><path d="M200.8333,218.14549c0,-2.70595 2.19488,-4.89956 4.90241,-4.89956c2.70753,0 4.90241,2.19361 4.90241,4.89956c0,2.70595 -2.19488,4.89955 -4.90241,4.89955c-2.70753,0 -4.90241,-2.1936 -4.90241,-4.89955z" fill="#fac900"/><path d="M190.66377,218.14549c0,-2.70595 2.19488,-4.89956 4.90241,-4.89956c2.70753,0 4.90241,2.19361 4.90241,4.89956c0,2.70595 -2.19488,4.89955 -4.90241,4.89955c-2.70753,0 -4.90241,-2.1936 -4.90241,-4.89955z" fill="#f6543b"/><path d="M211.00282,218.14549c0,-2.70595 2.19488,-4.89956 4.90242,-4.89956c2.70753,0 4.90241,2.19361 4.90241,4.89956c0,2.70595 -2.19488,4.89955 -4.90241,4.89955c-2.70753,0 -4.90242,-2.1936 -4.90242,-4.89955z" fill="#4ebfe9"/><path d="M221.29157,218.14549c0,-2.70595 2.19488,-4.89956 4.90242,-4.89956c2.70753,0 4.90241,2.19361 4.90241,4.89956c0,2.70595 -2.19488,4.89955 -4.90241,4.89955c-2.70753,0 -4.90242,-2.1936 -4.90242,-4.89955z" fill="#61e061"/><path d="M231.5102,218.14549c0,-2.70595 2.19488,-4.89956 4.90241,-4.89956c2.70753,0 4.90241,2.19361 4.90241,4.89956c0,2.70595 -2.19488,4.89955 -4.90241,4.89955c-2.70753,0 -4.90241,-2.1936 -4.90241,-4.89955z" fill="#c75eeb"/></g></g><g><g><path d="M251.96848,218.14549c0,-2.70595 2.19488,-4.89956 4.90241,-4.89956c2.70753,0 4.90241,2.19361 4.90241,4.89956c0,2.70595 -2.19488,4.89955 -4.90241,4.89955c-2.70753,0 -4.90241,-2.1936 -4.90241,-4.89955z" fill="#fac900"/><path d="M241.79895,218.14549c0,-2.70595 2.19488,-4.89956 4.90242,-4.89956c2.70753,0 4.90241,2.19361 4.90241,4.89956c0,2.70595 -2.19488,4.89955 -4.90241,4.89955c-2.70753,0 -4.90242,-2.1936 -4.90242,-4.89955z" fill="#f6543b"/><path d="M262.14502,218.14549c0,-2.70595 2.19488,-4.89956 4.90242,-4.89956c2.70753,0 4.90241,2.19361 4.90241,4.89956c0,2.70595 -2.19488,4.89955 -4.90241,4.89955c-2.70753,0 -4.90242,-2.1936 -4.90242,-4.89955z" fill="#4ebfe9"/><path d="M272.42676,218.14549c0,-2.70595 2.19488,-4.89956 4.90241,-4.89956c2.70753,0 4.90241,2.19361 4.90241,4.89956c0,2.70595 -2.19488,4.89955 -4.90241,4.89955c-2.70753,0 -4.90241,-2.1936 -4.90241,-4.89955z" fill="#61e061"/><path d="M282.65239,218.14549c0,-2.70595 2.19488,-4.89956 4.90241,-4.89956c2.70753,0 4.90242,2.19361 4.90242,4.89956c0,2.70595 -2.19488,4.89955 -4.90242,4.89955c-2.70753,0 -4.90241,-2.1936 -4.90241,-4.89955z" fill="#c75eeb"/></g></g><g><g><path d="M200.8333,228.18291c0,-2.70595 2.19488,-4.89955 4.90241,-4.89955c2.70753,0 4.90241,2.1936 4.90241,4.89955c0,2.70595 -2.19488,4.89955 -4.90241,4.89955c-2.70753,0 -4.90241,-2.1936 -4.90241,-4.89955z" fill="#fac900"/><path d="M190.66377,228.18291c0,-2.70595 2.19488,-4.89955 4.90241,-4.89955c2.70753,0 4.90241,2.1936 4.90241,4.89955c0,2.70595 -2.19488,4.89955 -4.90241,4.89955c-2.70753,0 -4.90241,-2.1936 -4.90241,-4.89955z" fill="#f6543b"/><path d="M211.00282,228.18291c0,-2.70595 2.19488,-4.89955 4.90242,-4.89955c2.70753,0 4.90241,2.1936 4.90241,4.89955c0,2.70595 -2.19488,4.89955 -4.90241,4.89955c-2.70753,0 -4.90242,-2.1936 -4.90242,-4.89955z" fill="#4ebfe9"/><path d="M221.29157,228.18291c0,-2.70595 2.19488,-4.89955 4.90242,-4.89955c2.70753,0 4.90241,2.1936 4.90241,4.89955c0,2.70595 -2.19488,4.89955 -4.90241,4.89955c-2.70753,0 -4.90242,-2.1936 -4.90242,-4.89955z" fill="#61e061"/><path d="M231.5102,228.18291c0,-2.70595 2.19488,-4.89955 4.90241,-4.89955c2.70753,0 4.90241,2.1936 4.90241,4.89955c0,2.70595 -2.19488,4.89955 -4.90241,4.89955c-2.70753,0 -4.90241,-2.1936 -4.90241,-4.89955z" fill="#c75eeb"/></g></g><g><g><path d="M251.96848,228.18291c0,-2.70595 2.19488,-4.89955 4.90241,-4.89955c2.70753,0 4.90241,2.1936 4.90241,4.89955c0,2.70595 -2.19488,4.89955 -4.90241,4.89955c-2.70753,0 -4.90241,-2.1936 -4.90241,-4.89955z" fill="#fac900"/><path d="M241.79895,228.18291c0,-2.70595 2.19488,-4.89955 4.90242,-4.89955c2.70753,0 4.90241,2.1936 4.90241,4.89955c0,2.70595 -2.19488,4.89955 -4.90241,4.89955c-2.70753,0 -4.90242,-2.1936 -4.90242,-4.89955z" fill="#f6543b"/><path d="M262.14502,228.18291c0,-2.70595 2.19488,-4.89955 4.90242,-4.89955c2.70753,0 4.90241,2.1936 4.90241,4.89955c0,2.70595 -2.19488,4.89955 -4.90241,4.89955c-2.70753,0 -4.90242,-2.1936 -4.90242,-4.89955z" fill="#4ebfe9"/><path d="M272.42676,228.18291c0,-2.70595 2.19488,-4.89955 4.90241,-4.89955c2.70753,0 4.90241,2.1936 4.90241,4.89955c0,2.70595 -2.19488,4.89955 -4.90241,4.89955c-2.70753,0 -4.90241,-2.1936 -4.90241,-4.89955z" fill="#61e061"/><path d="M282.65239,228.18291c0,-2.70595 2.19488,-4.89955 4.90241,-4.89955c2.70753,0 4.90242,2.1936 4.90242,4.89955c0,2.70595 -2.19488,4.89955 -4.90242,4.89955c-2.70753,0 -4.90241,-2.1936 -4.90241,-4.89955z" fill="#c75eeb"/></g></g></g><g><g><path d="M172.87762,234.26704v-97.8859h0.70135v97.8859z" fill="#000000" stroke-width="0"/><g clip-path="url(#clip-1)"><g fill="#000000" stroke-width="0"><path d="M170.04418,146.32745v-0.5257h6.71189v0.5257z"/></g><g fill="#000000" stroke-width="0"><path d="M170.04418,156.10552v-0.5257h6.71189v0.5257z"/></g><g fill="#000000" stroke-width="0"><path d="M170.04418,165.89061v-0.5257h6.71189v0.5257z"/></g><g fill="#000000" stroke-width="0"><path d="M170.04418,175.66868v-0.5257h6.71189v0.5257z"/></g><g fill="#000000" stroke-width="0"><path d="M170.04418,185.45377v-0.5257h6.71189v0.5257z"/></g><g fill="#000000" stroke-width="0"><path d="M170.04418,195.23885v-0.5257h6.71189v0.5257z"/></g><g fill="#000000" stroke-width="0"><path d="M170.04418,205.01693v-0.5257h6.71189v0.5257z"/></g><g fill="#000000" stroke-width="0"><path d="M170.04418,214.80201v-0.5257h6.71189v0.5257z"/></g><g fill="#000000" stroke-width="0"><path d="M170.04418,224.58009v-0.5257h6.71189v0.5257z"/></g></g></g><path d="M161.13708,235.85817v-4.12151l0.88369,-0.88318h2.48978l0.8837,0.88318v4.12151l-0.8837,0.88318h-2.48978zM164.14586,236.04041l0.44887,-0.4486v-3.58179l-0.44887,-0.4486h-1.75337l-0.44886,0.4486v3.58179l0.44886,0.4486z" fill="#000000" stroke-width="0"/><g fill="#000000" stroke-width="0"><path d="M156.29078,216.21791l3.06489,-2.95094v-0.67991l-0.37171,-0.37149h-1.54998l-0.37171,0.37149v0.49766h-0.80654v-0.75701l0.81356,-0.81309h2.27237l0.81356,0.81309v1.17757l-3.04385,2.9159v0.28037h3.07891v0.70094h-3.9065v-1.17757z"/><path d="M161.12306,216.5123v-4.12151l0.88369,-0.88318h2.48978l0.88369,0.88318v4.12151l-0.88369,0.88318h-2.48978zM164.12482,216.69454l0.44887,-0.4486v-3.58178l-0.44887,-0.4486h-1.75337l-0.44886,0.4486v3.58178l0.44886,0.4486z"/></g><g fill="#000000" stroke-width="0"><path d="M158.85069,196.55662h-2.87552v-1.0444l2.5529,-3.67291h1.13618v4.00936h0.71538v0.70795h-0.71538v1.17056h-0.80654v-1.17056zM158.86472,195.87671v-3.25235h-0.04208l-2.06196,2.99301v0.25934z"/><path d="M161.08799,196.844v-4.12152l0.88369,-0.88318h2.48979l0.88369,0.88318v4.12152l-0.88369,0.88318h-2.48979zM164.09677,197.01923l0.44886,-0.4486v-3.58178l-0.44886,-0.4486h-1.75337l-0.44886,0.4486v3.58178l0.44886,0.4486z"/></g><g fill="#000000" stroke-width="0"><path d="M156.08037,177.38598v-4.25469l0.81357,-0.81309h2.42665l0.81357,0.81309v0.72197h-0.80655v-0.46262l-0.37873,-0.37149h-1.68323l-0.37873,0.37149v1.7944l0.6242,-0.61683h1.84454l0.81356,0.81309v2.00468l-0.81356,0.81309h-2.45471l-0.81356,-0.81309zM158.98395,177.49813l0.37873,-0.3715v-1.47897l-0.37873,-0.3715h-1.31853l-0.77148,0.77104v1.07944l0.37873,0.3715h1.7183z"/><path d="M161.17916,177.31589v-4.12151l0.88369,-0.88318h2.48979l0.88369,0.88318v4.12151l-0.88369,0.88318h-2.48979zM164.18794,177.49813l0.44886,-0.4486v-3.58179l-0.44886,-0.4486h-1.75337l-0.44886,0.4486v3.58179l0.44886,0.4486z"/></g><g fill="#000000" stroke-width="0"><path d="M155.78581,157.956v-1.68926l0.53303,-0.53272l-0.44886,-0.4486v-1.59112l0.81356,-0.81309h2.42666l0.81356,0.81309v1.59112l-0.44886,0.4486l0.53302,0.53272v1.68926l-0.81356,0.81309h-2.59498zM158.82264,158.06815l0.37873,-0.3715v-1.19159l-0.37873,-0.37851h-1.85155l-0.37873,0.37851v1.19159l0.37873,0.3715zM158.73848,155.43262l0.37873,-0.3715v-1.10047l-0.37873,-0.3715h-1.68323l-0.37873,0.3715v1.10047l0.37873,0.3715z"/><path d="M161.05993,157.88591v-4.12151l0.8837,-0.88318h2.48978l0.8837,0.88318v4.12151l-0.8837,0.88318h-2.48978zM164.06871,158.06815l0.44886,-0.4486v-3.58179l-0.44886,-0.4486h-1.75337l-0.44886,0.4486v3.58179l0.44886,0.4486z"/></g><g fill="#000000" stroke-width="0"><path d="M153.801,133.78768l-1.30451,0.6729v-0.743l1.41672,-0.77103h0.70135v5.88787h-0.80654v-5.04674z"/><path d="M155.82789,137.95125v-4.12151l0.8837,-0.88318h2.48978l0.8837,0.88318v4.12151l-0.8837,0.88318h-2.48978zM158.83667,138.13349l0.44886,-0.4486v-3.58179l-0.44886,-0.4486h-1.75337l-0.44886,0.4486v3.58179l0.44886,0.4486z"/><path d="M161.17916,137.95125v-4.12151l0.88369,-0.88318h2.48979l0.88369,0.88318v4.12151l-0.88369,0.88318h-2.48979zM164.18794,138.13349l0.44886,-0.4486v-3.58179l-0.44886,-0.4486h-1.75337l-0.44886,0.4486v3.58179l0.44886,0.4486z"/></g><g fill="#000000" stroke-width="0"><path d="M168.68357,136.54236v-0.5257h9.24374v0.5257z"/></g><g fill="#000000" stroke-width="0"><path d="M168.68357,234.36517v-0.5257h9.24374v0.5257z"/></g><g fill="#ffffff" stroke-width="0" opacity="0.55"><path d="M283.38179,218.78333c-2.13209,0 -3.8574,-1.7243 -3.8574,-3.85515v-61.33691c2.65726,0.28718 5.33801,0.34714 7.71481,-0.18472v61.52162c0,2.13085 -1.72531,3.85515 -3.85741,3.85515z"/></g><path d="M324.87346,158.23637v29.6076c0,16.73838 -13.30455,30.37161 -29.91944,30.92535v15.73604c-35.46008,5.6846 -71.60048,5.70562 -107.06757,0.0771l-0.49095,-0.0771v-109.01678c35.46008,-5.6846 71.60047,-5.71264 107.06757,-0.0771l0.49095,0.0771v17.60755h14.77036c8.36707,0 15.14908,6.77806 15.14908,15.14024zM209.70527,133.59584c-5.09816,-1.3938 -9.91126,-1.61538 -15.19046,-0.60234c0,0 -4.9029,0.98058 -3.92232,5.88348c0.41691,2.08455 1.54284,3.10556 2.69953,3.59058c-0.2595,0.0928 -0.45162,0.20882 -0.54786,0.35319c-0.89021,1.33531 -1.73493,2.70209 -2.53115,4.09549c-1.5718,2.75065 3.32961,5.59055 5.28473,5.78666c2.34255,0.23497 4.79293,-0.78337 6.98582,-0.50715c9.4694,1.1928 18.56403,0.65003 28.00741,0.50715c2.93088,-0.04435 5.51116,0.5383 8.39388,0.5383c1.67927,0 3.92927,-1.34626 5.48296,-0.99949c3.07048,0.6853 13.76192,0.28015 18.32708,0.71476c2.58512,0.24611 5.30852,-1.12533 7.8608,-0.76072c6.30056,0.90008 16.30975,3.69215 21.43567,-1.19062c2.57925,-2.4569 0.62494,-7.09842 0.80737,-10.65588c0.17308,-3.37508 0.29641,-7.71295 -4.49285,-7.78932c-13.05433,-0.20816 -26.35176,-2.00042 -39.16468,0.50715c-2.6345,0.51559 -6.47051,-0.79188 -9.29393,-0.79188c-3.66441,0 -7.06738,0.84655 -10.65012,1.0143c-0.21791,0.0102 -0.42284,0.04862 -0.61663,0.11124c-0.13387,0.02422 -0.26589,0.05378 -0.39583,0.08844c-0.35091,-0.20425 -0.72894,-0.36702 -1.12738,-0.48157c-1.8166,-0.78269 -5.4307,-0.01125 -7.49664,1.13344l-0.9786,-1.32368c0,0 -3.53553,-3.53553 -7.07107,0c-0.32519,0.32519 -0.59056,0.65038 -0.80436,0.97281c-0.33769,-0.04639 -0.67286,-0.10451 -1.00138,-0.19433zM317.58647,185.09629v-25.15664c0,-1.35281 -0.2595,-2.68459 -0.77148,-3.91123c-1.40269,-3.37151 -4.47459,-5.53741 -7.8621,-5.53741h-5.35828c-1.61309,0 -2.91761,1.42992 -2.91761,3.19628v51.95347c0,2.43225 2.38458,3.97431 4.33433,2.79674c4.76214,-2.88085 8.50733,-7.42293 10.63942,-12.90426c1.28346,-3.30141 1.94273,-6.84815 1.94273,-10.42995z" fill="#75a3bf" stroke-width="0" opacity="0.2"/><path d="M200.69322,142.15396c1.10869,-0.09493 2.21664,-0.11804 3.20025,-0.01346c-1.06796,-0.0073 -2.13494,-0.00537 -3.20025,0.01346z" fill="#75a3bf" stroke-width="0" opacity="0.2"/></g></g></g></svg>